<?xml version="1.0"?><svg width="793.7007874015749" height="1122.5196850393702" xmlns="http://www.w3.org/2000/svg">
 <title>Black Hawk</title>
 <g>
  <title>Layer 1</title>
  <path fill="#000000" fill-rule="evenodd" stroke="#000000" stroke-width="0" id="path10416" d="m90.904076,919.274231c6.122284,-6.389343 15.305679,-15.334473 27.550186,-14.05658c12.24456,1.277893 39.794838,3.833618 49.998665,1.277893c10.203751,-2.555786 18.366806,1.277832 21.427979,-8.94519c3.061096,-10.222961 4.081482,-43.447937 12.244492,-56.226746c8.163101,-12.778748 30.611435,-26.835388 33.672546,-39.614258c3.061127,-12.778809 4.081558,-17.890381 0,-30.669067c-4.081467,-12.778809 -13.264938,-24.279785 -26.529877,-31.947083c-13.264877,-7.667297 -25.50946,-12.778748 -25.50946,-12.778748c0,0 -26.529877,30.669067 -27.550247,38.336365c-1.02037,7.667297 2.040741,15.334656 -4.081482,19.168152c-6.12236,3.833679 -16.326111,-7.667114 -18.366928,-28.11322c-2.040741,-20.446167 5.101974,-44.725891 4.081619,-58.782593c-1.020447,-14.056641 -8.163101,-26.835388 -2.040802,-40.89209c6.122284,-14.056702 20.407593,-35.78064 31.631805,-46.003784c11.224106,-10.2229 30.611359,-11.500793 33.67247,-24.279663c3.061157,-12.77887 -19.387238,-61.338074 -19.387238,-72.839111c0,-11.501007 3.061188,-33.224884 -4.081482,-51.115204c-7.142654,-17.89035 -15.305664,-56.226715 -45.917114,-80.506439c-30.611366,-24.279663 -52.039337,-34.502747 -57.141258,-52.393066c-5.101837,-17.89035 -1.02037,-17.89035 5.101921,-23.001801c6.122292,-5.111572 -16.32605,-34.502777 -23.468708,-62.616119c-7.142658,-28.113388 -19.38723,-84.340118 -14.285316,-89.451645c5.101917,-5.111511 20.407604,0 23.468784,10.223007c3.061104,10.223083 15.305679,72.839203 15.305679,72.839203c0,0 -3.06118,-47.28157 2.040741,-61.338242c5.101852,-14.056717 11.224144,-28.113358 17.346413,-24.279739c6.122292,3.833649 3.061119,86.895859 3.061119,86.895859c0,0 6.12236,-19.168182 10.203835,-30.669144c4.081482,-11.500931 7.142662,-21.723953 12.244568,-15.334549c5.101837,6.389404 1.02037,67.727646 1.02037,67.727646c0,0 8.163025,-15.334534 14.285324,-19.168182c6.122284,-3.833649 9.183395,-6.389435 13.264938,2.555786c4.081482,8.945114 3.061111,20.446045 3.061111,20.446045c0,0 3.061096,-12.778809 10.203842,-12.778809c7.142639,0 16.326035,3.833633 13.264862,14.056671c-3.061111,10.223022 27.550247,1.277863 25.509506,19.168182c-2.040741,17.89035 0,34.502747 8.16304,34.502747c8.163025,0 13.264938,14.056702 29.591003,8.94519c10.203827,7.667267 -5.101913,54.948822 2.040726,48.559387c7.14267,-6.389374 23.468781,-11.500854 29.591064,2.555817c6.122314,14.056641 -8.163025,30.669098 0,43.447937c8.163055,12.778748 0,24.279663 12.244507,34.502777c12.244568,10.223053 13.264954,2.555756 16.326141,25.557526c3.061066,23.001892 3.061066,33.224884 8.162994,42.170197c5.101898,8.945007 11.224152,15.334473 10.203796,34.502625c-1.020386,19.168335 -10.203796,37.058533 2.040771,34.502747c12.244537,-2.555786 17.346436,-17.890259 26.529816,-24.279724c9.183502,-6.389282 11.224243,-7.667297 23.46875,-19.168152c12.244537,-11.501038 14.28537,-26.83551 21.427948,-30.669189c7.1427,-3.833618 13.265045,-2.555725 23.468811,-7.667206c10.203735,-5.111542 20.407562,-16.612457 25.509521,-21.723969c5.101807,-5.111511 5.101807,-7.667328 14.285217,-17.890259c9.183472,-10.223114 18.366852,-16.612549 24.489166,-33.224915c6.122284,-16.612457 5.101929,-17.89035 12.244446,-42.170044c7.142761,-24.279785 5.101929,-31.947021 9.183533,-42.170044c4.081451,-10.223053 4.081451,-19.168243 11.224091,-28.113403c7.142761,-8.945129 13.264954,-19.168152 14.285278,-10.223053c1.020447,8.94519 1.020447,21.723969 1.020447,29.391296c0,7.667297 9.183472,-11.500916 17.346436,-30.669189c8.163086,-19.168182 4.081482,-21.723938 7.142639,-38.336395c3.061157,-16.612396 0,-28.113327 1.020447,-47.281525c1.020325,-19.168167 3.061096,-20.446091 4.081482,-48.559479c1.020386,-28.113342 2.834045,-32.834274 2.834045,-53.280319c0,-20.446098 -0.593323,-28.716293 -0.793274,-43.838524c3.542542,-11.607079 7.512085,-15.156303 10.203796,-14.056671c3.31543,1.09964 7.766418,1.17173 10.43103,16.612404c2.04071,16.612457 3.881409,29.000717 5.895203,60.060379c-2.040955,30.669128 -3.061279,57.504608 1.020325,65.17189c4.081421,7.667313 7.142578,6.389435 10.203735,-2.555771c3.061035,-8.94516 3.061035,-12.778809 7.142456,-28.113388c4.081726,-15.334549 3.82428,-25.383224 5.922485,-46.78476c-1.020325,-31.947037 0.199951,-46.500435 1.220276,-70.780178c1.020447,-24.279701 -0.111877,-24.988747 2.040955,-39.614243c1.840698,-13.844356 4.42041,-17.14331 13.264771,-15.334583c5.101868,7.667293 6.122192,26.83548 8.163086,43.447929c2.04071,16.61245 2.04071,15.334534 3.061157,46.003662c1.020325,30.669136 0.142151,42.913246 -1.89856,53.136269c-0.481384,11.39476 -2.295044,22.717422 -1.162598,27.370178c6.122253,-5.111588 6.122253,-14.056717 12.244568,-31.947006c6.122192,-17.890305 11.22406,-33.224854 13.264832,-53.670959c2.04071,-20.446083 7.484985,-27.935112 10.969971,-50.440212c8.163025,-21.723963 9.949402,-26.975744 15.559875,-27.510436c5.922424,5.323833 8.729248,10.116891 8.163086,26.835433c-3.061096,17.89032 -3.061096,26.835522 -8.163086,44.725796c-5.101807,17.890366 -4.081482,25.55761 -11.223999,44.7258c-4.335876,16.824814 -4.871826,22.53923 -7.142761,28.113403c10.203796,1.277863 10.061462,-3.799561 16.32605,-12.778824c10.318848,-24.602112 6.40686,-19.418503 10.203796,-26.835472c5.66803,-14.837814 10.515747,-20.30191 15.305725,-17.89032c5.101807,10.223022 7.142578,12.778801 3.061096,24.279747c-4.081421,11.500885 -1.020325,3.833603 -7.142639,20.446045c-6.122192,16.612411 -12.244507,23.001785 -4.081421,21.723953c8.162964,-1.277847 9.18335,0 14.285156,-10.223053c5.102051,-10.222992 0,-11.5009 11.224365,-17.890274c11.224121,-6.38942 18.366638,-17.89032 21.427979,-8.945206c3.061035,8.945206 4.081421,7.667297 -3.06134,20.446106c-7.142517,12.778763 -14.285156,16.612427 -11.22406,23.001862c3.061035,6.389343 11.22406,7.667267 17.346436,7.667267c6.122253,0 7.142578,1.277847 4.081421,14.056656c-3.061035,12.778809 -4.081421,12.778809 -5.101746,19.168243c-1.020386,6.389389 4.081421,11.50087 4.081421,11.50087c0,0 9.183472,-7.667282 2.040771,11.5009c-7.142578,19.168228 -11.224243,14.056732 -15.305664,23.001877c-4.081604,8.94519 -8.163025,17.890289 -2.04071,17.890289c6.122131,0 12.244507,-1.277893 11.224182,5.111511c-1.020386,6.389465 -10.203857,12.778809 -5.102051,16.612488c5.102051,3.833588 9.183472,-1.277863 13.264954,3.833588c4.081604,5.111572 0,14.056702 0,20.446136c0,6.389374 -1.020325,11.500916 1.020386,17.89035c2.040894,6.389313 6.122314,12.778748 3.061218,19.168121c-3.061218,6.389465 1.020386,7.667328 -7.142761,14.056671c-8.163025,6.389435 -13.264893,5.111572 -13.264893,11.501007c0,6.389313 -1.020325,5.11145 4.081482,10.222992c5.10199,5.111481 11.224243,1.277802 7.1427,12.778809c-4.081421,11.500854 -3.061035,10.223022 -5.101746,20.446045c-2.040955,10.223083 1.020325,5.111511 -8.163147,29.391296c-9.18335,24.279663 -18.366821,42.170044 -27.550293,48.559479c-9.18335,6.389313 -7.142639,20.446075 -1.020325,23.001801c6.122192,2.555725 7.142517,14.056641 1.020325,30.669067c-6.122253,16.612549 -13.264832,38.336426 -15.305725,49.83728c-2.04071,11.500977 -4.081421,12.778809 -14.285278,26.835571c-10.203674,14.056641 -18.36676,26.835388 -27.550232,30.669128c-9.18335,3.833618 -10.203735,16.612305 -16.32605,23.001831c-6.122192,6.389343 -8.163086,10.223022 -21.427917,10.223022c-13.265076,0 -13.265076,-3.833679 -26.529907,1.277832c-13.264893,5.111572 -19.387268,10.223022 -20.407593,17.890442c-1.020386,7.667175 -5.101929,11.500732 -13.264954,8.945007c-8.163025,-2.555664 -2.040771,5.111572 -12.244568,10.223206c-10.203735,5.111389 -7.142639,11.500732 -19.387268,10.2229c-12.244446,-1.277832 -18.366699,-12.77887 -21.427917,0c-3.061096,12.778809 -4.081451,23.001892 -17.346436,11.501038c-13.264923,-11.501038 -20.407593,-42.170044 -27.550232,-10.223206c-7.1427,31.947083 -7.1427,39.614441 1.020355,48.559509c8.163025,8.945068 10.203827,16.612427 28.570618,25.557617c18.366913,8.94519 18.366913,19.168152 31.631805,25.557556c13.265015,6.389404 14.285339,8.94519 34.692871,21.723999c20.407593,12.77887 25.50946,16.612488 37.754089,25.557556c12.244446,8.94519 15.305664,17.890381 18.366821,26.835449c3.061218,8.945251 16.325989,19.168274 11.224182,31.947083c-5.101868,12.778687 -15.305664,5.111511 -15.305664,11.500916c0,6.389343 2.04071,11.500854 -2.040894,24.279724c-4.081543,12.778748 -3.061157,17.89032 -17.346313,23.001831c-14.2854,5.111511 -22.448425,7.667297 -29.591064,3.833679c-7.1427,-3.833679 -9.183411,11.500854 -16.32605,7.667236c-7.142639,-3.833618 -10.203796,-15.334534 -15.305725,-8.945129c-5.101868,6.389343 4.081543,10.223083 -8.162964,14.05658c-12.244598,3.83374 -13.265045,-6.389282 -14.2854,2.555786c-1.020355,8.945313 3.061218,17.890259 -10.203766,8.945313c-13.264954,-8.945313 -9.18338,-26.835632 -19.387207,-14.056885c-10.203766,12.778809 -5.101959,28.113403 -23.46875,15.334717c-18.366821,-12.778931 -12.244537,-14.056763 -26.529877,-12.778931c-14.285309,1.277954 -14.285309,2.555786 -19.387146,-11.500854c-5.101929,-14.056702 5.101837,-10.223022 -17.346527,-11.500977c-22.448303,-1.277832 -11.224091,16.612549 -25.50943,-7.667114c-14.285309,-24.279907 -17.346497,-48.55957 -23.46875,-21.724121c-6.122314,26.83551 0,33.224915 -9.18338,40.892212c-9.183411,7.667358 -56.120911,5.111572 -56.120911,5.111572c0,0 -1.020386,29.391235 -5.101929,34.502686c-4.081482,5.111572 -14.285309,-5.11145 -23.468719,5.111572c-9.183395,10.223022 -3.061081,16.612427 -11.224182,25.557617c-8.162964,8.945068 -24.48909,10.223022 -24.48909,10.223022c0,0 11.224213,-11.500977 14.285309,-21.723999c3.061188,-10.223022 7.142654,-28.113403 7.142654,-28.113403c0,0 -16.32605,7.667358 -23.468689,8.94519c-7.14267,1.277832 -18.366867,-1.277832 -18.366867,-1.277832l3.061172,29.391113c0,0 -19.387238,0 -19.387238,-10.223022c0,-10.2229 6.122284,-38.336304 11.224213,-42.169922c5.101852,-3.83374 12.244507,-2.555786 12.244507,-2.555786c0,0 -2.040726,-12.778809 3.061157,-15.334534c5.101868,-2.555786 8.163055,0 16.326065,0c8.163025,0 44.896713,-14.056702 44.896713,-14.056702c0,0 -1.020386,-33.224915 3.061127,-47.281555c4.081512,-14.056763 23.46875,-53.670959 14.285339,-60.060425c-9.183472,-6.389404 -16.326111,-1.277832 -21.427979,5.111572c-5.101898,6.389343 -14.285294,25.557678 -33.672546,30.669067c-19.387238,5.111511 -34.692917,7.667297 -34.692917,7.667297c0,0 -4.081467,2.555725 -4.081467,12.778809c0,10.223022 7.142654,20.446167 -3.061188,33.224915c-10.203751,12.77887 -18.366776,24.279724 -29.590988,17.89032c-11.224197,-6.389465 -13.264954,-14.056763 -13.264954,-14.056763c0,0 8.16304,6.389526 21.42804,2.555847c13.264877,-3.833618 8.162964,-35.78064 7.142609,-42.170044c-1.020386,-6.389404 -11.224228,-12.77887 -17.346436,-6.389404c-6.122284,6.389404 -14.285309,23.00177 -9.183456,29.391296c5.101913,6.389282 -14.285339,-14.056763 -13.264954,-23.001892c1.02037,-8.945129 4.081558,-15.334656 4.081558,-15.334656c0,0 -13.264877,0 -21.427979,-1.277771c-8.163033,-1.277954 -14.285324,-6.389343 -14.285324,1.277771c0,7.667297 4.081551,42.170044 -5.101845,20.446167c-9.183456,-21.723938 -13.264938,-26.835449 -4.081543,-38.336487z"/>
 </g>
</svg>